<?xml version="1.0" encoding="UTF-8" standalone="no"?>
<svg
   width="1080"
   height="1080"
   viewBox="0 0 1080 1080"
   version="1.1"
   id="svg2"
   sodipodi:docname="trace.svg"
   inkscape:version="1.4.2 (f4327f4, 2025-05-13)"
   xmlns:inkscape="http://www.inkscape.org/namespaces/inkscape"
   xmlns:sodipodi="http://sodipodi.sourceforge.net/DTD/sodipodi-0.dtd"
   xmlns="http://www.w3.org/2000/svg"
   xmlns:svg="http://www.w3.org/2000/svg">
  <defs
     id="defs2" />
  <sodipodi:namedview
     id="namedview2"
     pagecolor="#ffffff"
     bordercolor="#000000"
     borderopacity="0.25"
     inkscape:showpageshadow="2"
     inkscape:pageopacity="0.0"
     inkscape:pagecheckerboard="0"
     inkscape:deskcolor="#d1d1d1"
     inkscape:zoom="0.5283659"
     inkscape:cx="465.58644"
     inkscape:cy="525.20422"
     inkscape:window-width="1920"
     inkscape:window-height="1009"
     inkscape:window-x="-8"
     inkscape:window-y="-8"
     inkscape:window-maximized="1"
     inkscape:current-layer="svg2" />
  <path
     d="m 513.40163,23.720753 c -16.13937,7.797716 -34.29617,16.359653 -40.34843,19.025142 -6.05227,2.667029 -15.27544,6.736148 -20.49701,9.042645 -9.09185,4.018266 -23.87203,10.085728 -53.00676,21.76151 -14.7169,5.896431 -33.78034,12.606382 -52.21562,18.376483 -6.52695,2.041486 -16.13937,5.073681 -21.36094,6.73615 -13.20897,4.206227 -41.43705,11.560217 -59.33594,15.458307 -32.21386,7.01655 -35.90218,7.76844 -45.0953,9.19825 -8.11241,1.26342 -44.32789,7.12134 -110.70502,17.9081 -8.67096,1.40979 -16.78812,2.94437 -18.038125,3.41121 -2.515838,0.9414 -1.609192,81.33447 1.430387,126.68326 0.822791,12.28747 2.224711,38.57878 3.113951,58.42513 0.889259,19.84636 2.310149,42.37977 3.158257,50.07426 0.8481,7.6945 2.27059,24.35767 3.16142,37.02876 1.71362,24.35304 3.21679,35.05815 7.90987,56.30967 1.59179,7.20299 4.12345,18.9897 5.62663,26.19269 1.50476,7.20299 4.85764,21.06972 7.45418,30.81494 2.59654,9.74522 5.24213,20.14525 5.87979,23.1112 0.63766,2.96593 2.37027,9.20595 3.85289,13.86671 1.48102,4.66076 3.74053,11.94079 5.01902,16.17784 6.45575,21.38248 18.52548,55.50694 25.88787,73.18546 6.78328,16.29187 10.02065,23.91702 12.09979,28.50381 8.41146,18.56139 13.65042,29.71793 15.19157,32.35568 0.98894,1.69483 3.92251,6.89485 6.51747,11.55561 2.59653,4.66076 11.73268,19.82941 20.30396,33.70846 8.57285,13.87905 15.58556,25.4516 15.58556,25.7166 0,0.58703 23.92742,35.21529 32.31672,46.76783 6.70735,9.23831 38.30097,48.76924 42.051,52.61649 1.30538,1.33891 12.69788,13.0794 25.31665,26.08791 19.9258,20.54278 33.08889,32.29099 75.79493,67.64341 4.70099,3.89193 9.3292,7.8085 10.2849,8.70522 2.98737,2.80108 45.90702,35.25071 49.22192,37.21201 1.73103,1.0262 8.84501,5.1153 15.8071,9.0888 6.96207,3.9737 15.63146,9.1984 19.2644,11.6112 8.34974,5.5451 33.13793,17.7201 38.88481,19.0975 6.66144,1.5962 32.2471,-9.6051 56.56692,-24.7675 7.39721,-4.6114 14.51752,-8.8701 15.82292,-9.4632 12.30706,-5.6022 55.32482,-38.19663 87.81717,-66.54175 2.61079,-2.27722 12.24536,-10.45242 21.40999,-18.16693 9.16463,-7.71453 25.54134,-23.26683 36.39271,-34.56049 10.85136,-11.29367 21.30713,-22.13129 23.23595,-24.08342 4.73579,-4.79633 35.52244,-43.18559 39.27088,-48.96802 1.64718,-2.54221 5.22158,-7.39558 7.94311,-10.78521 6.79595,-8.46332 24.11255,-33.32173 31.6585,-45.4474 8.42886,-13.54318 9.5412,-15.40902 12.5792,-21.099 1.44464,-2.70554 4.201,-5.92263 6.12664,-7.15213 1.92723,-1.22799 4.7801,-5.2555 6.3434,-8.94867 3.44308,-8.13976 9.62825,-20.72458 12.76593,-25.97544 1.26583,-2.11853 4.7548,-9.05188 7.75324,-15.40746 2.99844,-6.35559 8.01272,-16.95592 11.14249,-23.55495 3.12978,-6.60055 5.68992,-12.58018 5.68992,-13.29047 0,-0.70875 1.8592,-5.36335 4.13294,-10.34149 9.46686,-20.73537 26.6189,-71.41977 35.90852,-106.11738 20.11252,-75.11449 27.70752,-122.35069 31.18539,-193.96461 0.78642,-16.19477 2.14562,-40.19036 3.02065,-53.32522 0.875,-13.13487 2.3418,-46.76166 3.2595,-74.72622 0.9161,-27.96456 2.0111,-58.63157 2.4336,-68.14723 0.7531,-16.98364 0.7009,-17.31645 -2.7991,-18.0329 -13.76914,-2.82111 -49.07639,-8.93941 -62.90087,-10.90078 -31.87685,-4.519 -85.46906,-13.92064 -106.80468,-18.73701 -10.19155,-2.2988 -15.40678,-3.61152 -42.72187,-10.74517 -25.33565,-6.615965 -71.33762,-21.809269 -94.93749,-31.3542 -8.70261,-3.520596 -21.16315,-8.512622 -27.6901,-11.093381 -6.52695,-2.582282 -18.47326,-7.729916 -26.54769,-11.441583 -8.07444,-3.711651 -15.07608,-6.748461 -15.55868,-6.748461 -0.4826,0 -16.94,-7.626701 -36.57149,-16.94821 -44.07948,-20.9295049 -38.9307,-20.7523171 -76.4595,-2.622362 m 0.86393,31.022945 c -15.66469,7.749956 -33.10945,16.076141 -38.76614,18.502815 -5.6567,2.426674 -15.62513,6.79008 -22.15208,9.697462 -6.52695,2.907394 -13.29125,5.873333 -15.03176,6.59131 -11.76593,4.85027 -35.73447,14.469155 -40.34845,16.193265 -15.77703,5.89488 -26.67268,9.80993 -31.64583,11.36916 -42.33737,13.27815 -61.11126,18.57369 -79.90571,22.53497 -28.79771,6.069 -49.88017,10.18586 -58.54479,11.43386 -5.22157,0.75036 -21.9543,3.42818 -37.18385,5.94884 -15.22955,2.52065 -35.52245,5.80552 -45.09531,7.30159 -26.08724,4.07528 -23.56348,-0.94139 -22.32138,44.3889 1.20411,43.95751 1.60444,53.38226 4.94466,116.54208 2.07437,39.2305 3.77692,63.77306 8.0681,116.32637 0.48418,5.93188 1.89716,15.63858 3.14084,21.57046 1.24369,5.93188 3.36713,16.33191 4.71839,23.11121 1.35286,6.77927 3.79752,17.87265 5.43518,24.65194 10.81022,44.76639 10.95104,45.29024 20.17263,74.72621 9.41306,30.05227 11.81973,36.89934 21.80399,62.01505 1.26424,3.17856 3.31014,8.40477 4.54749,11.61569 4.61398,11.96698 20.24068,46.00514 24.01603,52.30835 2.15191,3.59301 5.8434,10.07801 8.20576,14.41059 2.36236,4.33413 5.03169,9.02109 5.93201,10.417 0.90033,1.39591 3.23421,5.31095 5.18676,8.70059 1.95254,3.38964 4.94624,8.243 6.65195,10.78522 1.70729,2.54223 3.6013,5.66225 4.21048,6.93336 5.91302,12.33523 39.69494,60.08604 63.71571,90.06588 13.88777,17.33186 65.69359,69.35825 83.83613,84.19412 5.59499,4.57447 15.91944,13.20111 22.94323,19.16996 32.46704,27.5917 50.16023,40.63103 67.97999,50.10195 3.38769,1.8012 9.53806,5.5867 13.66784,8.4141 35.7313,24.4546 50.71086,24.6488 86.81401,1.12 4.87662,-3.177 10.07761,-6.4695 11.56022,-7.3169 21.32295,-12.19503 46.17127,-29.45139 57.58749,-39.99471 0.95571,-0.88286 5.90195,-5.07214 10.99059,-9.3092 8.90199,-7.41253 28.8974,-24.3099 40.12851,-33.91338 25.77236,-22.03575 90.34093,-92.60503 90.34093,-98.73719 0,-0.48227 2.38768,-3.7656 5.30542,-7.29852 8.70577,-10.53871 27.63948,-38.31375 40.08261,-58.80261 1.03008,-1.6979 3.65985,-6.66064 5.84341,-11.0302 2.18355,-4.36956 4.67725,-8.36933 5.54118,-8.89011 0.86393,-0.52077 2.57913,-2.83805 3.81175,-5.15226 1.23102,-2.31265 4.87344,-8.71292 8.09341,-14.22108 3.21996,-5.50817 6.95418,-12.4061 8.29912,-15.33043 1.34337,-2.9228 5.57916,-11.80367 9.41147,-19.73696 3.83231,-7.93177 6.96684,-15.13938 6.96684,-16.01761 0,-0.87669 0.98259,-3.43587 2.18513,-5.68535 2.28326,-4.27403 6.9067,-15.15941 10.89566,-25.65959 1.28799,-3.38965 3.80857,-9.97634 5.60132,-14.6371 3.5744,-9.29532 13.42574,-39.44158 16.86565,-51.61501 1.19779,-4.23706 3.65825,-12.60639 5.46681,-18.59835 1.81014,-5.99198 3.28958,-12.17036 3.28958,-13.73114 0,-1.56077 1.01268,-6.36483 2.2516,-10.67582 5.02377,-17.48595 12.21688,-51.39008 15.94633,-75.15917 3.65668,-23.31149 4.46999,-33.9488 11.15359,-146.07357 2.8228,-47.36563 4.93674,-140.20794 3.19147,-140.20794 -0.65507,0 -8.06811,-1.32196 -16.47165,-2.93821 -14.0824,-2.70708 -32.53508,-5.77164 -71.45155,-11.86683 C 820.70954,143.66327 773.88638,132.21705 718.38117,113.24892 696.85725,105.8934 664.44085,93.075924 640.84888,82.591139 616.56545,71.801295 608.08437,67.87701 580.54776,54.689766 544.3924,37.376392 549.37819,37.371775 514.26556,54.743712 M 528.5315,253.84824 c -13.80866,2.88118 -29.98759,10.09188 -45.46873,20.26389 -6.56493,4.31409 -12.37826,7.53116 -12.91465,7.14906 -0.53799,-0.3821 -0.6266,-0.23727 -0.19621,0.32202 1.0269,1.33891 -5.86081,6.03819 -7.90197,5.39106 -0.87026,-0.27578 -1.05381,0.0122 -0.40981,0.64097 0.64558,0.62708 0.33544,2.12468 -0.6883,3.32646 -5.73106,6.72382 3.55067,5.30788 15.15836,-2.31111 50.73459,-33.30325 110.27464,-32.10146 144.41258,2.91201 20.42737,20.95261 20.1315,34.85168 -1.18039,55.54084 -5.14245,4.99047 -9.3371,9.57265 -9.32444,10.18278 0.0965,4.36803 7.93677,8.04117 17.16785,8.04117 8.1852,0 9.95895,2.12005 7.18361,8.58658 -3.68674,8.59275 -2.79908,14.90364 3.31489,23.55956 7.2469,10.25828 7.19311,10.40311 -4.3513,11.56483 -19.86882,2.00143 -56.6492,12.8483 -62.48152,18.42888 -1.55381,1.48682 -0.68671,8.22605 4.1994,32.6515 9.34343,46.70158 9.03015,41.73883 2.98738,47.26394 -12.00486,10.97627 -26.12365,13.20728 -40.82946,6.45111 -4.78644,-2.20019 -11.55073,-4.83178 -15.03176,-5.84867 -6.6836,-1.95522 -8.14722,-6.27239 -4.71999,-13.92681 1.21521,-2.7148 0.84337,-2.65472 -3.88135,0.62091 -6.01271,4.16927 -13.06815,14.3798 -16.9954,24.59032 -1.49527,3.88577 -6.42569,12.26589 -10.95737,18.62146 -26.20908,36.75452 -27.37206,52.45626 -1.95097,26.34369 32.00344,-32.87491 79.11617,-42.23956 97.57043,-19.39492 11.25642,13.93298 1.35128,24.13425 -26.18534,26.96769 -73.67783,7.5851 -102.11003,62.22305 -63.22362,121.50328 25.79925,39.33065 22.6853,66.24287 -9.38141,81.05867 -6.94309,3.20938 -7.2912,2.892 -5.14244,-4.68231 4.38452,-15.45985 -1.11711,-32.31563 -16.06659,-49.21763 -23.12361,-26.14492 -29.16638,-39.92535 -29.17588,-66.5356 -0.008,-21.19451 -1.54906,-22.53958 -7.0507,-6.14757 -4.65509,13.86826 -6.81492,28.35744 -6.21523,41.69723 0.60443,13.44764 0.85601,13.21498 -7.68519,7.09822 -15.83716,-11.3399 -15.57924,-29.69789 0.92564,-65.88695 12.28174,-26.93071 15.37988,-45.69084 9.72634,-58.90738 -4.05224,-9.47403 -7.97792,-11.87453 -7.97792,-4.87954 0,2.40203 -0.44937,4.80405 -0.99842,5.33869 -0.55063,0.53464 -1.14399,3.3049 -1.3228,6.15528 -0.52847,8.48181 -9.71526,23.55803 -9.84342,16.15473 -0.0775,-4.44351 -4.16618,-20.73691 -6.1488,-24.49941 -1.17247,-2.22329 -1.68355,-4.47587 -1.13766,-5.00741 0.54431,-0.53157 0.23102,-0.96605 -0.69938,-0.96605 -1.80856,0 -9.12664,-10.78061 -8.62823,-12.71117 0.16298,-0.63634 -0.39557,-1.15555 -1.24367,-1.15555 -0.84812,0 -2.64718,-2.08001 -3.99688,-4.62225 -1.34969,-2.54223 -2.03008,-4.62224 -1.5095,-4.62224 0.51899,0 -0.12349,-1.04001 -1.42881,-2.30958 -3.51585,-3.42508 -5.00163,-18.33951 -2.54591,-25.5841 2.27218,-6.70378 2.59654,-6.82242 3.65985,-1.34507 0.40823,2.0985 1.43513,5.54977 2.28008,7.66829 0.84652,2.11854 1.58544,4.41886 1.64399,5.11067 0.24367,2.90276 11.95106,10.12423 18.03812,11.12573 12.22005,2.01067 15.88938,-10.30759 8.28014,-27.79199 -1.47628,-3.38964 -2.42091,-6.17994 -2.10128,-6.19996 0.31963,-0.02 -1.33705,-2.05382 -3.68358,-4.51748 -2.34811,-2.4652 -3.83547,-5.22159 -3.30699,-6.12601 0.52849,-0.9044 0.46678,-1.21873 -0.13759,-0.69641 -0.60286,0.52231 -4.09972,-1.95367 -7.76906,-5.502 -3.66934,-3.54835 -11.11876,-9.23833 -16.55393,-12.64184 -3.3827,-1.70897 -23.73754,-16.87117 -26.35465,-21.79847 -6.8798,-12.95461 -3.38452,-28.53617 7.75481,-34.58207 0.96679,-0.52539 1.62976,2.53144 1.70571,7.85473 0.14708,10.50019 0.9652,15.64936 2.35445,14.81274 0.56488,-0.3405 2.3592,1.7888 3.9858,4.73009 1.62818,2.94129 3.86395,5.34792 4.97156,5.34792 1.1076,0 2.01425,0.57318 2.01425,1.27267 0,0.6995 4.91935,5.02899 10.93046,9.62041 6.01113,4.59297 10.53016,8.98102 10.03965,9.7514 -0.48893,0.77191 -0.11705,0.93677 0.82754,0.36823 0.94463,-0.56854 2.16458,-0.32817 2.71205,0.53311 2.60129,4.09991 4.34813,1.191 3.38769,-5.64068 -0.73894,-5.24316 -3.79117,-11.35068 -11.2058,-22.41016 -13.54283,-20.20535 -14.96847,-29.71329 -7.08075,-47.21465 4.39719,-9.75599 17.16944,-26.65183 19.21693,-25.42076 0.9478,0.5716 1.29589,0.36206 0.77057,-0.46532 -1.17248,-1.84582 4.48264,-6.82704 6.12347,-5.39414 0.64716,0.56545 0.69305,0.20492 0.10128,-0.8012 -0.62027,-1.05233 0.67722,-3.01524 3.05381,-4.62224 2.27376,-1.53612 5.59973,-4.32796 7.39247,-6.20613 1.79116,-1.87817 3.788,-3.09535 4.43674,-2.70555 0.64716,0.38981 1.60286,-0.36978 2.12343,-1.69019 0.52059,-1.32042 1.68041,-1.95829 2.57915,-1.4175 0.89716,0.54081 1.48735,0.41139 1.30855,-0.28811 -0.17721,-0.69796 3.20256,-4.74397 7.51272,-8.99025 13.05865,-12.86524 16.53969,-24.06339 9.99851,-32.16156 -12.08081,-14.95448 -33.25977,-9.3138 -44.16493,11.76362 -2.08387,4.02596 -4.35921,7.31855 -5.05858,7.31855 -0.69937,0 -1.10128,0.51921 -0.89401,1.15554 0.67089,2.06307 -3.8766,11.17042 -5.57915,11.17042 -0.90981,0 -1.20729,0.43449 -0.66298,0.96451 0.92722,0.90288 -6.72474,15.75875 -10.49376,20.37637 -0.93355,1.14476 -1.84336,3.04605 -2.02217,4.22627 -0.17721,1.1802 -2.36869,4.75012 -4.86871,7.93331 -2.50161,3.18318 -6.48106,8.56191 -8.845,11.95156 -2.36396,3.38964 -8.19311,10.323 -12.95107,15.40747 -4.75953,5.08447 -8.67569,9.80532 -8.7026,10.49094 -0.027,0.68563 -0.77848,0.80735 -1.67089,0.27117 -0.89083,-0.53772 -1.47945,-0.40521 -1.30539,0.29429 0.61392,2.47135 -3.8877,9.63275 -5.4605,8.68672 -0.87659,-0.52848 -1.13292,-0.23265 -0.56962,0.65482 0.56329,0.88902 -0.038,4.09376 -1.33862,7.12287 -2.99054,6.97034 -3.04749,23.35619 -0.10925,31.46514 1.23893,3.41892 1.77216,6.73769 1.18672,7.374 -0.58704,0.63634 -0.17564,0.65791 0.91139,0.0477 1.19781,-0.67022 1.97786,-0.2234 1.97786,1.13554 0,2.1139 1.63768,4.23241 13.56341,17.54293 l 4.85922,5.42498 -2.36394,7.89941 c -1.50318,5.01821 -2.40667,14.92982 -2.47787,27.16027 l -0.11078,19.25933 5.93834,11.16271 c 3.26743,6.13988 5.9336,11.51246 5.9241,11.94079 -0.008,0.42833 1.40033,2.15705 3.13136,3.84262 3.04748,2.96749 13.60138,23.06806 14.57132,27.75039 0.26266,1.27112 0.98101,2.67936 1.59495,3.1308 6.51903,4.78247 7.56177,37.26142 1.91457,59.64846 -8.33235,33.03515 2.37977,53.11108 45.01145,84.36205 26.99389,19.78627 28.73758,22.03421 34.95756,45.04218 2.29908,8.50184 4.82757,9.60655 23.92899,10.44781 23.36887,1.02921 34.54301,5.06289 42.99245,15.52301 13.68524,16.94206 35.16644,15.78803 40.66331,-2.18478 6.66777,-21.8031 20.48594,-24.57181 32.12686,-6.43569 7.06017,10.99785 8.01588,11.16579 25.68849,4.54058 29.27239,-10.97628 45.77412,-26.16343 61.64608,-56.738 2.36711,-4.56214 8.58868,-13.57551 13.8229,-20.0297 12.85138,-15.84504 15.10455,-20.6383 17.11723,-36.4063 1.17247,-9.19826 3.90668,-18.96044 8.57601,-30.62389 9.55705,-23.8677 9.62192,-24.42083 5.56018,-47.06364 l -3.55066,-19.7878 5.94466,-29.8304 c 3.2706,-16.40741 9.02381,-43.35199 12.78809,-59.87649 14.45582,-63.47569 13.277,-86.34653 -5.81177,-112.73644 -6.57599,-9.09194 -12.4099,-23.10657 -17.84824,-42.87897 -12.3213,-44.7926 -37.48606,-75.4966 -61.87551,-75.4966 -9.58868,0 -10.84819,-0.38826 -14.71531,-4.52825 -2.32597,-2.49139 -6.42884,-6.86557 -9.11716,-9.72211 -9.72002,-10.32762 -18.69161,-12.29515 -44.16335,-9.6836 -7.87189,0.80737 -14.90359,0.42218 -24.30399,-1.33274 -16.03019,-2.98905 -27.4844,-2.96439 -42.12693,0.0893 M 414.7663,317.76131 c -2.22945,4.35569 -3.67408,8.5157 -3.21206,9.24447 0.46203,0.72723 0.10924,1.3235 -0.7864,1.3235 -0.89399,0 -1.21519,1.04001 -0.71519,2.31113 0.50159,1.27111 0.19937,2.31112 -0.67089,2.31112 -0.87027,0 -2.00634,1.07543 -2.52533,2.39125 -1.45414,3.69008 1.75949,1.58079 13.57764,-8.91015 9.91779,-8.80383 10.80072,-16.59231 1.88291,-16.59231 -2.62817,0 -4.5032,1.966 -7.55068,7.92099 m 15.40993,40.18883 c -41.80572,27.22653 -48.34692,49.44873 -25.41318,86.32032 6.58392,10.58647 7.42252,9.12278 3.97313,-6.93336 -6.29277,-29.29729 3.81333,-54.77352 30.40848,-76.65214 1.72786,-1.42056 6.29118,-8.37549 6.29118,-9.58806 0,-2.439 -3.1978,-1.00303 -15.25961,6.85324 m 37.63006,58.22328 c -3.7975,0.7796 -9.49376,3.34496 -12.65833,5.70075 -3.16617,2.35426 -6.34341,4.09377 -7.06019,3.8642 -0.71836,-0.22957 -0.90982,0.20493 -0.42564,0.96606 0.48418,0.76265 -0.71045,3.08456 -2.65192,5.16149 -6.5839,7.04121 -2.47312,16.97287 4.49213,10.85148 13.21688,-11.61723 29.47651,-15.80652 40.26456,-10.37385 l 5.28012,2.65778 -11.10452,3.42817 c -28.736,8.87162 -49.51623,28.08627 -30.92905,28.59779 17.19476,0.47302 25.92109,4.42657 24.54767,11.11958 -1.66616,8.11049 7.53803,11.18737 21.87044,7.31084 22.15998,-5.99351 54.65866,-58.52065 36.20757,-58.52065 -2.47629,0 -12.56972,-2.47289 -22.43057,-5.49583 -19.10934,-5.85638 -34.07781,-7.5928 -45.40227,-5.26781 m 149.08983,16.15626 c -2.18673,5.54823 0.53798,7.0936 11.66783,6.61906 10.36558,-0.4422 10.71843,-0.58858 11.20261,-4.69313 l 0.50158,-4.23704 h -11.23109 c -8.52381,0 -11.45105,0.55775 -12.14093,2.31111 m 41.47187,48.35479 c -4.31174,6.79316 -27.24707,10.69586 -42.53833,7.23843 -17.88623,-4.04446 -17.82927,-4.11534 -10.64883,13.06399 17.93369,42.91287 67.49423,43.94673 69.36134,1.44677 0.7959,-18.12073 -9.60292,-32.10455 -16.17418,-21.74919 M 546.95092,590.22081 c -7.25163,1.70716 -9.22317,3.86421 -6.47948,7.08436 2.67566,3.1385 36.52087,2.59153 39.84211,-0.64248 6.13928,-5.97811 -16.64888,-10.37695 -33.36263,-6.44188 m -17.05393,23.81995 c -19.66313,8.33235 -26.08092,42.81889 -14.49537,77.90476 9.27697,28.09244 12.23902,28.83509 12.30864,3.08151 0.10127,-38.11345 14.40676,-59.50518 44.3089,-66.25365 17.40364,-3.92736 26.21383,-9.87003 21.98595,-14.83123 -2.56331,-3.006 -56.97831,-2.92433 -64.10812,0.0986 m 76.2538,19.74159 c -23.2502,17.15467 -24.16793,30.72095 -4.13138,61.14915 14.36405,21.81388 16.28812,32.98431 8.15514,47.34715 -4.81174,8.49875 -3.80224,9.15049 4.98579,3.22015 10.23269,-6.90408 11.5096,-18.15461 4.32757,-38.1458 -7.71208,-21.46723 -6.27695,-34.02431 5.23423,-45.83721 6.34182,-6.50811 3.269,-6.41259 -10.37667,0.32048 l -10.68048,5.27089 0.0348,-8.76685 c 0.038,-9.5064 3.41618,-18.39343 10.36561,-27.26352 5.49212,-7.01192 5.05542,-6.86401 -7.91462,2.70556"
     stroke="none"
     fill="#fbfbfb"
     fill-rule="evenodd"
     id="path1"
     sodipodi:nodetypes="cccccccccccsscccsscccccccscsccccsscccsssccccsccsscsccssccccccccsscccsscccccsccccscccccscsscccccccccsscsccsscsccscscccscccsccscccccccsccccccscccscscccccccccccccccscccscccccscssscccccscssscsccccccssccscccccccccccsccsccscsscccscscccccsccscccccccscccccsscccccccccccccscccccccscscsscccccscccccccccsscsscccsccsccccscccsccccccccsccssccscc"
     style="stroke-width:1.56138" />
  <path
     d="m 514.26556,54.743698 c -15.66469,7.749956 -33.10945,16.076141 -38.76614,18.502815 -5.6567,2.426674 -15.62513,6.79008 -22.15208,9.697462 -6.52695,2.907394 -13.29125,5.873333 -15.03176,6.59131 -11.76593,4.85027 -35.73447,14.469155 -40.34845,16.193265 -15.77703,5.89488 -26.67268,9.80993 -31.64583,11.36916 -42.33737,13.27815 -61.11126,18.57369 -79.90571,22.53497 -28.79771,6.069 -49.88017,10.18586 -58.54479,11.43386 -5.22157,0.75036 -21.9543,3.42818 -37.18385,5.94884 -15.22955,2.52065 -35.52245,5.80552 -45.09531,7.30159 -26.08724,4.07528 -23.56348,-0.94139 -22.32138,44.3889 1.20411,43.95751 1.60444,53.38226 4.94466,116.54208 2.07437,39.2305 3.77692,63.77306 8.0681,116.32637 0.48418,5.93188 1.89716,15.63858 3.14084,21.57046 1.24369,5.93188 3.36713,16.33191 4.71839,23.11121 1.35286,6.77927 3.79752,17.87265 5.43518,24.65194 10.81022,44.76639 10.95104,45.29024 20.17263,74.72621 9.41306,30.05227 11.81973,36.89934 21.80399,62.01505 1.26424,3.17856 3.31014,8.40477 4.54749,11.61569 4.61398,11.96698 20.24068,46.00514 24.01603,52.30835 2.15191,3.59301 5.8434,10.07801 8.20576,14.41059 2.36236,4.33413 5.03169,9.02109 5.93201,10.417 0.90033,1.39591 3.23421,5.31095 5.18676,8.70059 1.95254,3.38964 4.94624,8.243 6.65195,10.78522 1.70729,2.54223 3.6013,5.66225 4.21048,6.93336 5.91302,12.33523 39.69494,60.08604 63.71571,90.06588 13.88777,17.33186 65.69359,69.35825 83.83613,84.19412 5.59499,4.57447 15.91944,13.20111 22.94323,19.16996 32.46704,27.5917 50.16023,40.63103 67.97999,50.10195 3.38769,1.8012 9.53806,5.5867 13.66784,8.4141 35.7313,24.4546 50.71086,24.6488 86.81401,1.12 4.87662,-3.177 10.07761,-6.4695 11.56022,-7.3169 21.32295,-12.19503 46.17127,-29.45139 57.58749,-39.99471 0.95571,-0.88286 5.90195,-5.07214 10.99059,-9.3092 8.90199,-7.41253 28.8974,-24.3099 40.12851,-33.91338 25.77236,-22.03575 90.34093,-92.60503 90.34093,-98.73719 0,-0.48227 2.38768,-3.7656 5.30542,-7.29852 8.70577,-10.53871 27.63948,-38.31375 40.08261,-58.80261 1.03008,-1.6979 3.65985,-6.66064 5.84341,-11.0302 2.18355,-4.36956 4.67725,-8.36933 5.54118,-8.89011 0.86393,-0.52077 2.57913,-2.83805 3.81175,-5.15226 1.23102,-2.31265 4.87344,-8.71292 8.09341,-14.22108 3.21996,-5.50817 6.95418,-12.4061 8.29912,-15.33043 1.34337,-2.9228 5.57916,-11.80367 9.41147,-19.73696 3.83231,-7.93177 6.96684,-15.13938 6.96684,-16.01761 0,-0.87669 0.98259,-3.43587 2.18513,-5.68535 2.28326,-4.27403 6.9067,-15.15941 10.89566,-25.65959 1.28799,-3.38965 3.80857,-9.97634 5.60132,-14.6371 3.5744,-9.29532 13.42574,-39.44158 16.86565,-51.61501 1.19779,-4.23706 3.65825,-12.60639 5.46681,-18.59835 1.81014,-5.99198 3.28958,-12.17036 3.28958,-13.73114 0,-1.56077 1.01268,-6.36483 2.2516,-10.67582 5.02377,-17.48595 12.21688,-51.39008 15.94633,-75.15917 3.65668,-23.31149 4.46999,-33.9488 11.15359,-146.07357 2.8228,-47.36563 4.93674,-140.20794 3.19147,-140.20794 -0.65507,0 -8.06811,-1.32196 -16.47165,-2.93821 -14.0824,-2.70708 -32.53508,-5.77164 -71.45155,-11.86683 C 820.70954,143.66327 773.88638,132.21705 718.38117,113.24892 696.85725,105.8934 664.44085,93.075924 640.84888,82.591139 616.56545,71.801295 608.08437,67.87701 580.54776,54.689766 544.3924,37.376392 549.37819,37.371775 514.26556,54.743712 M 528.5315,253.84824 c -13.80866,2.88118 -29.98759,10.09188 -45.46873,20.26389 -6.56493,4.31409 -12.37826,7.53116 -12.91465,7.14906 -0.53799,-0.3821 -0.6266,-0.23727 -0.19621,0.32202 -5.23124,4.71877 -5.75684,4.28367 -9.00008,9.35849 -5.73106,6.72382 3.55067,5.30788 15.15836,-2.31111 50.73459,-33.30325 110.27464,-32.10146 144.41258,2.91201 20.42737,20.95261 20.1315,34.85168 -1.18039,55.54084 -5.14245,4.99047 -9.3371,9.57265 -9.32444,10.18278 0.0965,4.36803 7.93677,8.04117 17.16785,8.04117 8.1852,0 9.95895,2.12005 7.18361,8.58658 -3.68674,8.59275 -2.79908,14.90364 3.31489,23.55956 7.2469,10.25828 7.19311,10.40311 -4.3513,11.56483 -19.86882,2.00143 -56.6492,12.8483 -62.48152,18.42888 -1.55381,1.48682 -0.68671,8.22605 4.1994,32.6515 9.34343,46.70158 9.03015,41.73883 2.98738,47.26394 -12.00486,10.97627 -26.12365,13.20728 -40.82946,6.45111 -4.78644,-2.20019 -11.55073,-4.83178 -15.03176,-5.84867 -6.6836,-1.95522 -8.14722,-6.27239 -4.71999,-13.92681 1.21521,-2.7148 0.84337,-2.65472 -3.88135,0.62091 -6.01271,4.16927 -13.06815,14.3798 -16.9954,24.59032 -1.49527,3.88577 -6.42569,12.26589 -10.95737,18.62146 -26.20908,36.75452 -27.37206,52.45626 -1.95097,26.34369 32.00344,-32.87491 79.11617,-42.23956 97.57043,-19.39492 11.25642,13.93298 1.35128,24.13425 -26.18534,26.96769 -73.67783,7.5851 -102.11003,62.22305 -63.22362,121.50328 25.79925,39.33065 22.6853,66.24287 -9.38141,81.05867 -6.94309,3.20938 -7.2912,2.892 -5.14244,-4.68231 4.38452,-15.45985 -1.11711,-32.31563 -16.06659,-49.21763 -23.12361,-26.14492 -29.16638,-39.92535 -29.17588,-66.5356 -0.008,-21.19451 -1.54906,-22.53958 -7.0507,-6.14757 -4.65509,13.86826 -6.81492,28.35744 -6.21523,41.69723 0.60443,13.44764 0.85601,13.21498 -7.68519,7.09822 -15.83716,-11.3399 -15.57924,-29.69789 0.92564,-65.88695 12.28174,-26.93071 15.37988,-45.69084 9.72634,-58.90738 -4.05224,-9.47403 -7.97792,-11.87453 -7.97792,-4.87954 0,9.58946 -11.94713,40.21372 -12.16464,27.6487 -1.10846,-23.5641 -10.60634,-30.81458 -21.85462,-48.96184 -2.8979,-5.45839 -9.65341,-20.21639 -5.48422,-32.51592 2.27218,-6.70378 2.59654,-6.82242 3.65985,-1.34507 0.40823,2.0985 1.43513,5.54977 2.28008,7.66829 0.84652,2.11854 1.58544,4.41886 1.64399,5.11067 0.24367,2.90276 11.95106,10.12423 18.03812,11.12573 12.22005,2.01067 15.88938,-10.30759 8.28014,-27.79199 -2.33961,-10.45907 -9.14306,-15.70145 -16.99857,-23.04186 -3.66933,-3.54835 -11.11875,-9.23833 -16.55392,-12.64184 -5.4336,-3.40505 -22.40114,-15.72748 -26.35465,-21.79847 -6.8798,-12.95461 -3.38452,-28.53617 7.75481,-34.58207 0.96679,-0.52539 1.62975,2.53144 1.7057,7.85473 -0.0758,22.50249 3.96252,20.09082 24.25653,35.78383 6.35265,4.88613 10.726,8.57058 13.57924,10.65274 2.60129,4.09991 4.34813,1.191 3.38769,-5.64068 -0.73894,-5.24316 -3.79117,-11.35068 -11.2058,-22.41016 -13.54283,-20.20535 -14.96847,-29.71329 -7.08075,-47.21465 7.65832,-13.40105 17.45599,-26.49079 29.26606,-36.70366 2.27376,-1.53612 5.59973,-4.32796 7.39247,-6.20613 1.79116,-1.87817 14.11561,-10.7467 17.96059,-15.0916 13.05865,-12.86524 16.53969,-24.06339 9.99851,-32.16156 -12.08081,-14.95448 -33.25978,-9.3138 -44.16493,11.76362 -2.08387,4.02596 -20.5268,38.78984 -29.57936,53.14497 -2.50161,3.18318 -6.48107,8.56191 -8.845,11.95156 -2.36396,3.38964 -8.19311,10.323 -12.95107,15.40747 -9.3164,11.12195 -13.74736,16.45722 -19.04762,27.52081 -8.0981,23.42364 2.18705,40.74492 17.53021,57.56538 l 4.85921,5.42497 -2.36394,7.89941 c -1.50318,5.01821 -2.40667,14.92983 -2.47787,27.16027 -1.75934,12.21288 0.30244,20.03607 5.82758,30.42205 23.34116,38.5857 35.13221,58.51005 27.1363,106.31305 -8.33235,33.03516 2.37977,53.11108 45.01145,84.36205 26.99389,19.78627 28.73758,22.03422 34.95756,45.04218 2.29908,8.50185 4.82757,9.60656 23.92899,10.44781 23.36887,1.02922 34.54301,5.06289 42.99245,15.52302 13.68524,16.94205 35.16644,15.78803 40.66331,-2.18478 6.66777,-21.80309 20.48594,-24.57182 32.12686,-6.43569 7.06017,10.99784 8.01588,11.16578 25.68849,4.54058 29.27239,-10.97629 45.77412,-26.16343 61.64608,-56.738 2.36711,-4.56215 8.58868,-13.57551 13.8229,-20.0297 12.85138,-15.84504 15.10455,-20.6383 17.11723,-36.40631 1.17248,-9.19826 3.90668,-18.96043 8.57601,-30.62388 9.55705,-23.8677 9.62192,-24.42082 5.56018,-47.06364 l -3.55066,-19.78781 5.94466,-29.83039 c 3.2706,-16.40741 9.02381,-43.35199 12.78809,-59.8765 14.45582,-63.47569 13.277,-86.34652 -5.81177,-112.73644 -6.57599,-9.09194 -12.4099,-23.10657 -17.84824,-42.87897 -12.32129,-44.79259 -37.48606,-75.49659 -61.87551,-75.49659 -9.58868,0 -10.84819,-0.38827 -14.71531,-4.52825 -2.32597,-2.4914 -6.42884,-6.86557 -9.11716,-9.72212 -9.72002,-10.32762 -18.69161,-12.29515 -44.16335,-9.68359 -7.87189,0.80736 -14.90359,0.42217 -24.30399,-1.33274 -16.03019,-2.98905 -27.4844,-2.96439 -42.12693,0.0893 m -113.76517,63.91325 c -5.54689,13.94124 -18.95432,30.10962 5.66777,8.67132 9.91779,-8.80384 10.80072,-16.59232 1.88291,-16.59232 -2.62817,0 -4.5032,1.96602 -7.55068,7.921 m 15.40993,40.18882 c -41.80572,27.22654 -48.34692,49.44873 -25.41318,86.32033 6.58392,10.58648 7.42252,9.12278 3.97313,-6.93336 -6.29277,-29.2973 3.81333,-54.77353 30.40848,-76.65214 1.72786,-1.42056 6.29118,-8.3755 6.29118,-9.58805 0,-2.43901 -3.1978,-1.00305 -15.25961,6.85322 m 37.63006,58.22329 c -3.7975,0.77961 -9.49375,3.34495 -12.65833,5.70076 -2.38559,1.94745 -8.19628,7.91481 -10.13775,9.99174 -6.5839,7.0412 -2.47312,16.97286 4.49214,10.85147 13.21687,-11.61723 29.4765,-15.80651 40.26456,-10.37384 l 5.28011,2.65778 -11.10452,3.42817 c -28.73599,8.87161 -49.51623,28.08627 -30.92905,28.59779 17.19476,0.47301 25.92109,4.42658 24.54767,11.11958 -1.66616,8.11048 7.53803,11.18736 21.87044,7.31083 22.15998,-5.9935 54.65866,-58.52064 36.20757,-58.52064 -2.47629,0 -12.56972,-2.4729 -22.43057,-5.49584 -19.10934,-5.85638 -34.07781,-7.59278 -45.40227,-5.2678 m 149.08983,16.15627 c -2.18673,5.54822 0.53798,7.0936 11.66783,6.61904 10.36558,-0.4422 10.71843,-0.58857 11.20261,-4.69312 l 0.50158,-4.23704 h -11.23109 c -8.52381,0 -11.45105,0.55774 -12.14093,2.31112 m 41.47187,48.35478 c -4.31174,6.79315 -27.24707,10.69587 -42.53833,7.23844 -17.88623,-4.04446 -17.82926,-4.11534 -10.64883,13.06398 17.93369,42.91287 67.49423,43.94672 69.36134,1.44676 0.7959,-18.12071 -9.60292,-32.10453 -16.17418,-21.74918 M 546.95095,590.2209 c -7.25163,1.70715 -9.22317,3.86419 -6.47948,7.08434 2.67566,3.13851 36.52087,2.59154 39.84211,-0.64248 6.13928,-5.9781 -16.64888,-10.37694 -33.36263,-6.44186 m -17.05393,23.81993 c -19.66313,8.33237 -26.08092,42.81889 -14.49537,77.90477 9.27697,28.09244 12.23902,28.83508 12.30864,3.08151 0.10128,-38.11345 14.40676,-59.50518 44.3089,-66.25366 17.40364,-3.92736 26.21383,-9.87001 21.98595,-14.83123 -2.5633,-3.00599 -56.97831,-2.92433 -64.10812,0.0986 m 76.2538,19.74159 c -23.2502,17.15467 -24.16793,30.72094 -4.13138,61.14915 14.36405,21.81389 16.28812,32.9843 8.15515,47.34714 -4.81175,8.49876 -3.80225,9.1505 4.98578,3.22016 10.23269,-6.90408 11.5096,-18.15461 4.32757,-38.14581 -7.71208,-21.46722 -6.27695,-34.0243 5.23423,-45.8372 6.34182,-6.50811 3.26901,-6.41259 -10.37667,0.32047 l -10.68048,5.2709 0.0348,-8.76684 c 0.038,-9.50642 3.41617,-18.39345 10.3656,-27.26352 5.49212,-7.01194 5.05542,-6.86402 -7.91462,2.70555"
     stroke="none"
     fill="#5474fc"
     fill-rule="evenodd"
     id="path2"
     sodipodi:nodetypes="csscccccsccccscccccscsscccccccccsscsccsscsccscscccscccsccsccccccccccccscccscscccccccccccccccscccscsccccscscccccccccccscccsccccccccccsscccccccccccccsccccccsscccccscccccccsscsscccsccsccccscccsccccccccsccssccscc"
     style="stroke-width:1.56138" />
</svg>
