<?xml version="1.0" encoding="UTF-8" standalone="no"?>
<svg
   width="1080"
   height="1080"
   viewBox="0 0 1080 1080"
   version="1.1"
   id="svg2"
   sodipodi:docname="trace.svg"
   inkscape:version="1.4.2 (f4327f4, 2025-05-13)"
   xmlns:inkscape="http://www.inkscape.org/namespaces/inkscape"
   xmlns:sodipodi="http://sodipodi.sourceforge.net/DTD/sodipodi-0.dtd"
   xmlns="http://www.w3.org/2000/svg"
   xmlns:svg="http://www.w3.org/2000/svg">
  <defs
     id="defs2" />
  <sodipodi:namedview
     id="namedview2"
     pagecolor="#ffffff"
     bordercolor="#000000"
     borderopacity="0.25"
     inkscape:showpageshadow="2"
     inkscape:pageopacity="0.0"
     inkscape:pagecheckerboard="0"
     inkscape:deskcolor="#d1d1d1"
     inkscape:zoom="2.1134636"
     inkscape:cx="403.12972"
     inkscape:cy="474.813"
     inkscape:window-width="1920"
     inkscape:window-height="1009"
     inkscape:window-x="-8"
     inkscape:window-y="-8"
     inkscape:window-maximized="1"
     inkscape:current-layer="svg2" />
  <path
     d="m 518.954,208.298 c -10.2,5.061 -21.675,10.618 -25.5,12.348 -3.825,1.731 -9.654,4.372 -12.954,5.869 -5.746,2.608 -15.087,6.546 -33.5,14.124 -9.301,3.827 -21.349,8.182 -33,11.927 -4.125,1.325 -10.2,3.293 -13.5,4.372 -8.348,2.73 -26.188,7.503 -37.5,10.033 -20.359,4.554 -22.69,5.042 -28.5,5.97 -5.127,0.82 -28.015,4.622 -69.965,11.623 -5.48,0.915 -10.61,1.911 -11.4,2.214 -1.59,0.611 -1.017,52.789 0.904,82.222 0.52,7.975 1.406,25.039 1.968,37.92 0.562,12.881 1.46,27.506 1.996,32.5 0.536,4.994 1.435,15.809 1.998,24.033 1.083,15.806 2.033,22.754 4.999,36.547 1.006,4.675 2.606,12.325 3.556,17 0.951,4.675 3.07,13.675 4.711,20 1.641,6.325 3.313,13.075 3.716,15 0.403,1.925 1.498,5.975 2.435,9 0.936,3.025 2.364,7.75 3.172,10.5 4.08,13.878 11.708,36.026 16.361,47.5 4.287,10.574 6.333,15.523 7.647,18.5 5.316,12.047 8.627,19.288 9.601,21 0.625,1.1 2.479,4.475 4.119,7.5 1.641,3.025 7.415,12.87 12.832,21.878 5.418,9.008 9.85,16.519 9.85,16.691 0,0.381 15.122,22.856 20.424,30.354 4.239,5.996 24.206,31.653 26.576,34.15 0.825,0.869 8.025,8.489 16,16.932 12.593,13.333 20.912,20.958 47.902,43.903 2.971,2.526 5.896,5.068 6.5,5.65 1.888,1.818 29.013,22.879 31.108,24.152 1.094,0.666 5.59,3.32 9.99,5.899 4.4,2.579 9.879,5.97 12.175,7.536 5.277,3.599 20.943,11.501 24.575,12.395 4.21,1.036 20.38,-6.234 35.75,-16.075 4.675,-2.993 9.175,-5.757 10,-6.142 7.778,-3.636 34.965,-24.791 55.5,-43.188 1.65,-1.478 7.739,-6.784 13.531,-11.791 5.792,-5.007 16.142,-15.101 23,-22.431 6.858,-7.33 13.466,-14.364 14.685,-15.631 2.993,-3.113 22.45,-28.029 24.819,-31.782 1.041,-1.65 3.3,-4.8 5.02,-7 4.295,-5.493 15.239,-21.627 20.008,-29.497 5.327,-8.79 6.03,-10.001 7.95,-13.694 0.913,-1.756 2.655,-3.844 3.872,-4.642 1.218,-0.797 3.021,-3.411 4.009,-5.808 2.176,-5.283 6.085,-13.451 8.068,-16.859 0.8,-1.375 3.005,-5.875 4.9,-10 1.895,-4.125 5.064,-11.005 7.042,-15.288 1.978,-4.284 3.596,-8.165 3.596,-8.626 0,-0.46 1.175,-3.481 2.612,-6.712 5.983,-13.458 16.823,-46.354 22.694,-68.874 12.711,-48.752 17.511,-79.41 19.709,-125.89 0.497,-10.511 1.356,-26.085 1.909,-34.61 0.553,-8.525 1.48,-30.35 2.06,-48.5 0.579,-18.15 1.271,-38.054 1.538,-44.23 0.476,-11.023 0.443,-11.239 -1.769,-11.704 -8.702,-1.831 -31.016,-5.802 -39.753,-7.075 -20.146,-2.933 -54.016,-9.035 -67.5,-12.161 -6.441,-1.492 -9.737,-2.344 -27,-6.974 -16.012,-4.294 -45.085,-14.155 -60,-20.35 -5.5,-2.285 -13.375,-5.525 -17.5,-7.2 -4.125,-1.676 -11.675,-5.017 -16.778,-7.426 -5.103,-2.409 -9.528,-4.38 -9.833,-4.38 -0.305,0 -10.706,-4.95 -23.113,-11 -27.858,-13.584 -24.604,-13.469 -48.322,-1.702 m 0.546,20.135 c -9.9,5.03 -20.925,10.434 -24.5,12.009 -3.575,1.575 -9.875,4.407 -14,6.294 -4.125,1.887 -8.4,3.812 -9.5,4.278 -7.436,3.148 -22.584,9.391 -25.5,10.51 -9.971,3.826 -16.857,6.367 -20,7.379 -26.757,8.618 -38.622,12.055 -50.5,14.626 -18.2,3.939 -31.524,6.611 -37,7.421 -3.3,0.487 -13.875,2.225 -23.5,3.861 -9.625,1.636 -22.45,3.768 -28.5,4.739 -16.487,2.645 -14.892,-0.611 -14.107,28.81 0.761,28.53 1.014,34.647 3.125,75.64 1.311,25.462 2.387,41.391 5.099,75.5 0.306,3.85 1.199,10.15 1.985,14 0.786,3.85 2.128,10.6 2.982,15 0.855,4.4 2.4,11.6 3.435,16 6.832,29.055 6.921,29.395 12.749,48.5 5.949,19.505 7.47,23.949 13.78,40.25 0.799,2.063 2.092,5.455 2.874,7.539 2.916,7.767 12.792,29.859 15.178,33.95 1.36,2.332 3.693,6.541 5.186,9.353 1.493,2.813 3.18,5.855 3.749,6.761 0.569,0.906 2.044,3.447 3.278,5.647 1.234,2.2 3.126,5.35 4.204,7 1.079,1.65 2.276,3.675 2.661,4.5 3.737,8.006 25.087,38.998 40.268,58.456 8.777,11.249 41.518,45.016 52.984,54.645 3.536,2.969 10.061,8.568 14.5,12.442 20.519,17.908 31.701,26.371 42.963,32.518 2.141,1.169 6.028,3.626 8.638,5.461 22.582,15.872 32.049,15.998 54.866,0.727 3.082,-2.062 6.369,-4.199 7.306,-4.749 13.476,-7.915 29.18,-19.115 36.395,-25.958 0.604,-0.573 3.73,-3.292 6.946,-6.042 5.626,-4.811 18.263,-15.778 25.361,-22.011 C 659.193,779.187 700,733.385 700,729.405 c 0,-0.313 1.509,-2.444 3.353,-4.737 5.502,-6.84 17.468,-24.867 25.332,-38.165 0.651,-1.102 2.313,-4.323 3.693,-7.159 1.38,-2.836 2.956,-5.432 3.502,-5.77 0.546,-0.338 1.63,-1.842 2.409,-3.344 0.778,-1.501 3.08,-5.655 5.115,-9.23 2.035,-3.575 4.395,-8.052 5.245,-9.95 0.849,-1.897 3.526,-7.661 5.948,-12.81 2.422,-5.148 4.403,-9.826 4.403,-10.396 0,-0.569 0.621,-2.23 1.381,-3.69 1.443,-2.774 4.365,-9.839 6.886,-16.654 0.814,-2.2 2.407,-6.475 3.54,-9.5 2.259,-6.033 8.485,-25.599 10.659,-33.5 0.757,-2.75 2.312,-8.182 3.455,-12.071 1.144,-3.889 2.079,-7.899 2.079,-8.912 0,-1.013 0.64,-4.131 1.423,-6.929 3.175,-11.349 7.721,-33.354 10.078,-48.781 2.311,-15.13 2.825,-22.034 7.049,-94.807 1.784,-30.742 3.12,-91 2.017,-91 -0.414,0 -5.099,-0.858 -10.41,-1.907 -8.9,-1.757 -20.562,-3.746 -45.157,-7.702 -38.829,-6.246 -68.421,-13.675 -103.5,-25.986 -13.603,-4.774 -34.09,-13.093 -49,-19.898 -15.347,-7.003 -20.707,-9.55 -38.11,-18.109 -22.85,-11.237 -19.699,-11.24 -41.89,0.035 m 9.016,129.226 c -8.727,1.87 -18.952,6.55 -28.736,13.152 -4.149,2.8 -7.823,4.888 -8.162,4.64 -0.34,-0.248 -0.396,-0.154 -0.124,0.209 0.649,0.869 -3.704,3.919 -4.994,3.499 -0.55,-0.179 -0.666,0.008 -0.259,0.416 0.408,0.407 0.212,1.379 -0.435,2.159 -3.622,4.364 2.244,3.445 9.58,-1.5 32.064,-21.615 69.693,-20.835 91.268,1.89 12.91,13.599 12.723,22.62 -0.746,36.048 -3.25,3.239 -5.901,6.213 -5.893,6.609 0.061,2.835 5.016,5.219 10.85,5.219 5.173,0 6.294,1.376 4.54,5.573 -2.33,5.577 -1.769,9.673 2.095,15.291 4.58,6.658 4.546,6.752 -2.75,7.506 -12.557,1.299 -35.802,8.339 -39.488,11.961 -0.982,0.965 -0.434,5.339 2.654,21.192 5.905,30.311 5.707,27.09 1.888,30.676 -7.587,7.124 -16.51,8.572 -25.804,4.187 -3.025,-1.428 -7.3,-3.136 -9.5,-3.796 -4.224,-1.269 -5.149,-4.071 -2.983,-9.039 0.768,-1.762 0.533,-1.723 -2.453,0.403 -3.8,2.706 -8.259,9.333 -10.741,15.96 -0.945,2.522 -4.061,7.961 -6.925,12.086 -16.564,23.855 -17.299,34.046 -1.233,17.098 20.226,-21.337 50.001,-27.415 61.664,-12.588 7.114,9.043 0.854,15.664 -16.549,17.503 -46.564,4.923 -64.533,40.385 -39.957,78.86 16.305,25.527 14.337,42.994 -5.929,52.61 -4.388,2.083 -4.608,1.877 -3.25,-3.039 2.771,-10.034 -0.706,-20.974 -10.154,-31.944 -14.614,-16.969 -18.433,-25.913 -18.439,-43.184 -0.005,-13.756 -0.979,-14.629 -4.456,-3.99 -2.942,9.001 -4.307,18.405 -3.928,27.063 0.382,8.728 0.541,8.577 -4.857,4.607 -10.009,-7.36 -9.846,-19.275 0.585,-42.763 7.762,-17.479 9.72,-29.655 6.147,-38.233 -2.561,-6.149 -5.042,-7.707 -5.042,-3.167 0,1.559 -0.284,3.118 -0.631,3.465 -0.348,0.347 -0.723,2.145 -0.836,3.995 -0.334,5.505 -6.14,15.29 -6.221,10.485 -0.049,-2.884 -2.633,-13.459 -3.886,-15.901 -0.741,-1.443 -1.064,-2.905 -0.719,-3.25 0.344,-0.345 0.146,-0.627 -0.442,-0.627 -1.143,0 -5.768,-6.997 -5.453,-8.25 0.103,-0.413 -0.25,-0.75 -0.786,-0.75 -0.536,0 -1.673,-1.35 -2.526,-3 -0.853,-1.65 -1.283,-3 -0.954,-3 0.328,0 -0.078,-0.675 -0.903,-1.499 -2.222,-2.223 -3.161,-11.903 -1.609,-16.605 1.436,-4.351 1.641,-4.428 2.313,-0.873 0.258,1.362 0.907,3.602 1.441,4.977 0.535,1.375 1.002,2.868 1.039,3.317 0.154,1.884 7.553,6.571 11.4,7.221 7.723,1.305 10.042,-6.69 5.233,-18.038 -0.933,-2.2 -1.53,-4.011 -1.328,-4.024 0.202,-0.013 -0.845,-1.333 -2.328,-2.932 -1.484,-1.6 -2.424,-3.389 -2.09,-3.976 0.334,-0.587 0.295,-0.791 -0.087,-0.452 -0.381,0.339 -2.591,-1.268 -4.91,-3.571 -2.319,-2.303 -7.027,-5.996 -10.462,-8.205 -2.13785,-1.10919 -15.002,-10.95 -16.656,-14.148 -4.348,-8.408 -2.139,-18.521 4.901,-22.445 0.611,-0.341 1.03,1.643 1.078,5.098 0.093,6.815 0.61,10.157 1.488,9.614 0.357,-0.221 1.491,1.161 2.519,3.07 1.029,1.909 2.442,3.471 3.142,3.471 0.7,0 1.273,0.372 1.273,0.826 0,0.454 3.109,3.264 6.908,6.244 3.799,2.981 6.655,5.829 6.345,6.329 -0.309,0.501 -0.074,0.608 0.523,0.239 0.597,-0.369 1.368,-0.213 1.714,0.346 1.644,2.661 2.748,0.773 2.141,-3.661 -0.467,-3.403 -2.396,-7.367 -7.082,-14.545 -8.559,-13.114 -9.46,-19.285 -4.475,-30.644 2.779,-6.332 10.851,-17.298 12.145,-16.499 0.599,0.371 0.819,0.235 0.487,-0.302 -0.741,-1.198 2.833,-4.431 3.87,-3.501 0.409,0.367 0.438,0.133 0.064,-0.52 -0.392,-0.683 0.428,-1.957 1.93,-3 1.437,-0.997 3.539,-2.809 4.672,-4.028 1.132,-1.219 2.394,-2.009 2.804,-1.756 0.409,0.253 1.013,-0.24 1.342,-1.097 0.329,-0.857 1.062,-1.271 1.63,-0.92 0.567,0.351 0.94,0.267 0.827,-0.187 -0.112,-0.453 2.024,-3.079 4.748,-5.835 8.253,-8.35 10.453,-15.618 6.319,-20.874 -7.635,-9.706 -21.02,-6.045 -27.912,7.635 -1.317,2.613 -2.755,4.75 -3.197,4.75 -0.442,0 -0.696,0.337 -0.565,0.75 0.424,1.339 -2.45,7.25 -3.526,7.25 -0.575,0 -0.763,0.282 -0.419,0.626 0.586,0.586 -4.25,10.228 -6.632,13.225 -0.59,0.743 -1.165,1.977 -1.278,2.743 -0.112,0.766 -1.497,3.083 -3.077,5.149 -1.581,2.066 -4.096,5.557 -5.59,7.757 -1.494,2.2 -5.178,6.7 -8.185,10 -3.008,3.3 -5.483,6.364 -5.5,6.809 -0.017,0.445 -0.492,0.524 -1.056,0.176 -0.563,-0.349 -0.935,-0.263 -0.825,0.191 0.388,1.604 -2.457,6.252 -3.451,5.638 -0.554,-0.343 -0.716,-0.151 -0.36,0.425 0.356,0.577 -0.024,2.657 -0.846,4.623 -1.89,4.524 -1.926,15.159 -0.069,20.422 0.783,2.219 1.12,4.373 0.75,4.786 -0.371,0.413 -0.111,0.427 0.576,0.031 0.757,-0.435 1.25,-0.145 1.25,0.737 0,1.372 1.035,2.747 8.572,11.386 l 3.071,3.521 -1.494,5.127 c -0.95,3.257 -1.521,9.69 -1.566,17.628 l -0.07,12.5 3.753,7.245 c 2.065,3.985 3.75,7.472 3.744,7.75 -0.005,0.278 0.885,1.4 1.979,2.494 1.926,1.926 8.596,14.972 9.209,18.011 0.166,0.825 0.62,1.739 1.008,2.032 4.12,3.104 4.779,24.184 1.21,38.714 -5.266,21.441 1.504,34.471 28.447,54.754 17.06,12.842 18.162,14.301 22.093,29.234 1.453,5.518 3.051,6.235 15.123,6.781 14.769,0.668 21.831,3.286 27.171,10.075 8.649,10.996 22.225,10.247 25.699,-1.418 4.214,-14.151 12.947,-15.948 20.304,-4.177 4.462,7.138 5.066,7.247 16.235,2.947 18.5,-7.124 28.929,-16.981 38.96,-36.825 1.496,-2.961 5.428,-8.811 8.736,-13 8.122,-10.284 9.546,-13.395 10.818,-23.629 0.741,-5.97 2.469,-12.306 5.42,-19.876 6.04,-15.491 6.081,-15.85 3.514,-30.546 l -2.244,-12.843 3.757,-19.361 c 2.067,-10.649 5.703,-28.137 8.082,-38.862 9.136,-41.198 8.391,-56.042 -3.673,-73.17 -4.156,-5.901 -7.843,-14.997 -11.28,-27.83 -7.787,-29.072 -23.691,-49 -39.105,-49 -6.06,0 -6.856,-0.252 -9.3,-2.939 -1.47,-1.617 -4.063,-4.456 -5.762,-6.31 -6.143,-6.703 -11.813,-7.98 -27.911,-6.285 -4.975,0.524 -9.419,0.274 -15.36,-0.865 -10.131,-1.94 -17.37,-1.924 -26.624,0.058 m -71.899,41.482 c -1.409,2.827 -2.322,5.527 -2.03,6 0.292,0.472 0.069,0.859 -0.497,0.859 -0.565,0 -0.768,0.675 -0.452,1.5 0.317,0.825 0.126,1.5 -0.424,1.5 -0.55,0 -1.268,0.698 -1.596,1.552 -0.919,2.395 1.112,1.026 8.581,-5.783 6.268,-5.714 6.826,-10.769 1.19,-10.769 -1.661,0 -2.846,1.276 -4.772,5.141 m 9.739,26.084 c -26.421,17.671 -30.555,32.094 -16.061,56.025 4.161,6.871 4.691,5.921 2.511,-4.5 -3.977,-19.015 2.41,-35.55 19.218,-49.75 1.092,-0.922 3.976,-5.436 3.976,-6.223 0,-1.583 -2.021,-0.651 -9.644,4.448 m 23.782,37.789 c -2.4,0.506 -6,2.171 -8,3.7 -2.001,1.528 -4.009,2.657 -4.462,2.508 -0.454,-0.149 -0.575,0.133 -0.269,0.627 0.306,0.495 -0.449,2.002 -1.676,3.35 -4.161,4.57 -1.563,11.016 2.839,7.043 8.353,-7.54 18.629,-10.259 25.447,-6.733 l 3.337,1.725 -7.018,2.225 c -18.161,5.758 -31.294,18.229 -19.547,18.561 10.867,0.307 16.382,2.873 15.514,7.217 -1.053,5.264 4.764,7.261 13.822,4.745 14.005,-3.89 34.544,-37.982 22.883,-37.982 -1.565,0 -7.944,-1.605 -14.176,-3.567 -12.077,-3.801 -21.537,-4.928 -28.694,-3.419 m 94.224,10.486 c -1.382,3.601 0.34,4.604 7.374,4.296 6.551,-0.287 6.774,-0.382 7.08,-3.046 l 0.317,-2.75 h -7.098 c -5.387,0 -7.237,0.362 -7.673,1.5 m 26.21,31.384 c -2.725,4.409 -17.22,6.942 -26.884,4.698 -11.304,-2.625 -11.268,-2.671 -6.73,8.479 11.334,27.852 42.656,28.523 43.836,0.939 0.503,-11.761 -6.069,-20.837 -10.222,-14.116 m -70.415,71.093 c -4.583,1.108 -5.829,2.508 -4.095,4.598 1.691,2.037 23.081,1.682 25.18,-0.417 3.88,-3.88 -10.522,-6.735 -21.085,-4.181 m -10.778,15.46 c -12.427,5.408 -16.483,27.791 -9.161,50.563 5.863,18.233 7.735,18.715 7.779,2 0.064,-24.737 9.105,-38.621 28.003,-43.001 10.999,-2.549 16.567,-6.406 13.895,-9.626 -1.62,-1.951 -36.01,-1.898 -40.516,0.064 m 48.192,12.813 c -14.694,11.134 -15.274,19.939 -2.611,39.688 9.078,14.158 10.294,21.408 5.154,30.73 -3.041,5.516 -2.403,5.939 3.151,2.09 6.467,-4.481 7.274,-11.783 2.735,-24.758 -4.874,-13.933 -3.967,-22.083 3.308,-29.75 4.008,-4.224 2.066,-4.162 -6.558,0.208 l -6.75,3.421 0.022,-5.69 c 0.024,-6.17 2.159,-11.938 6.551,-17.695 3.471,-4.551 3.195,-4.455 -5.002,1.756"
     stroke="none"
     fill="#fbfbfb"
     fill-rule="evenodd"
     id="path1"
     sodipodi:nodetypes="cccccccccccsscccsscccccccscsccccsscccsssccccsccsscsccssccccccccsscccsscccccsccccscccccscsscccccccccsscsccsscsccscscccscccsccscccccccsccccccscccscscccccccccccccccscccscccccscssscccccscssscsccccccssccscccccccccccsccsccscsscccscscccccsccscccccccscccccsscccccccccccccscccccccscscsscccccscccccccccsscsscccsccsccccscccsccccccccsccssccscc" />
  <path
     d="m 519.5,228.433 c -9.9,5.03 -20.925,10.434 -24.5,12.009 -3.575,1.575 -9.875,4.407 -14,6.294 -4.125,1.887 -8.4,3.812 -9.5,4.278 -7.436,3.148 -22.584,9.391 -25.5,10.51 -9.971,3.826 -16.857,6.367 -20,7.379 -26.757,8.618 -38.622,12.055 -50.5,14.626 -18.2,3.939 -31.524,6.611 -37,7.421 -3.3,0.487 -13.875,2.225 -23.5,3.861 -9.625,1.636 -22.45,3.768 -28.5,4.739 -16.487,2.645 -14.892,-0.611 -14.107,28.81 0.761,28.53 1.014,34.647 3.125,75.64 1.311,25.462 2.387,41.391 5.099,75.5 0.306,3.85 1.199,10.15 1.985,14 0.786,3.85 2.128,10.6 2.982,15 0.855,4.4 2.4,11.6 3.435,16 6.832,29.055 6.921,29.395 12.749,48.5 5.949,19.505 7.47,23.949 13.78,40.25 0.799,2.063 2.092,5.455 2.874,7.539 2.916,7.767 12.792,29.859 15.178,33.95 1.36,2.332 3.693,6.541 5.186,9.353 1.493,2.813 3.18,5.855 3.749,6.761 0.569,0.906 2.044,3.447 3.278,5.647 1.234,2.2 3.126,5.35 4.204,7 1.079,1.65 2.276,3.675 2.661,4.5 3.737,8.006 25.087,38.998 40.268,58.456 8.777,11.249 41.518,45.016 52.984,54.645 3.536,2.969 10.061,8.568 14.5,12.442 20.519,17.908 31.701,26.371 42.963,32.518 2.141,1.169 6.028,3.626 8.638,5.461 22.582,15.872 32.049,15.998 54.866,0.727 3.082,-2.062 6.369,-4.199 7.306,-4.749 13.476,-7.915 29.18,-19.115 36.395,-25.958 0.604,-0.573 3.73,-3.292 6.946,-6.042 5.626,-4.811 18.263,-15.778 25.361,-22.011 C 659.193,779.187 700,733.385 700,729.405 c 0,-0.313 1.509,-2.444 3.353,-4.737 5.502,-6.84 17.468,-24.867 25.332,-38.165 0.651,-1.102 2.313,-4.323 3.693,-7.159 1.38,-2.836 2.956,-5.432 3.502,-5.77 0.546,-0.338 1.63,-1.842 2.409,-3.344 0.778,-1.501 3.08,-5.655 5.115,-9.23 2.035,-3.575 4.395,-8.052 5.245,-9.95 0.849,-1.897 3.526,-7.661 5.948,-12.81 2.422,-5.148 4.403,-9.826 4.403,-10.396 0,-0.569 0.621,-2.23 1.381,-3.69 1.443,-2.774 4.365,-9.839 6.886,-16.654 0.814,-2.2 2.407,-6.475 3.54,-9.5 2.259,-6.033 8.485,-25.599 10.659,-33.5 0.757,-2.75 2.312,-8.182 3.455,-12.071 1.144,-3.889 2.079,-7.899 2.079,-8.912 0,-1.013 0.64,-4.131 1.423,-6.929 3.175,-11.349 7.721,-33.354 10.078,-48.781 2.311,-15.13 2.825,-22.034 7.049,-94.807 1.784,-30.742 3.12,-91 2.017,-91 -0.414,0 -5.099,-0.858 -10.41,-1.907 -8.9,-1.757 -20.562,-3.746 -45.157,-7.702 -38.829,-6.246 -68.421,-13.675 -103.5,-25.986 -13.603,-4.774 -34.09,-13.093 -49,-19.898 -15.347,-7.003 -20.707,-9.55 -38.11,-18.109 -22.85,-11.237 -19.699,-11.24 -41.89,0.035 m 9.016,129.226 c -8.727,1.87 -18.952,6.55 -28.736,13.152 -4.149,2.8 -7.823,4.888 -8.162,4.64 -0.34,-0.248 -0.396,-0.154 -0.124,0.209 -3.30612,3.06265 -3.63829,2.78026 -5.688,6.074 -3.622,4.364 2.244,3.445 9.58,-1.5 32.064,-21.615 69.693,-20.835 91.268,1.89 12.91,13.599 12.723,22.62 -0.746,36.048 -3.25,3.239 -5.901,6.213 -5.893,6.609 0.061,2.835 5.016,5.219 10.85,5.219 5.173,0 6.294,1.376 4.54,5.573 -2.33,5.577 -1.769,9.673 2.095,15.291 4.58,6.658 4.546,6.752 -2.75,7.506 -12.557,1.299 -35.802,8.339 -39.488,11.961 -0.982,0.965 -0.434,5.339 2.654,21.192 5.905,30.311 5.707,27.09 1.888,30.676 -7.587,7.124 -16.51,8.572 -25.804,4.187 -3.025,-1.428 -7.3,-3.136 -9.5,-3.796 -4.224,-1.269 -5.149,-4.071 -2.983,-9.039 0.768,-1.762 0.533,-1.723 -2.453,0.403 -3.8,2.706 -8.259,9.333 -10.741,15.96 -0.945,2.522 -4.061,7.961 -6.925,12.086 -16.564,23.855 -17.299,34.046 -1.233,17.098 20.226,-21.337 50.001,-27.415 61.664,-12.588 7.114,9.043 0.854,15.664 -16.549,17.503 -46.564,4.923 -64.533,40.385 -39.957,78.86 16.305,25.527 14.337,42.994 -5.929,52.61 -4.388,2.083 -4.608,1.877 -3.25,-3.039 2.771,-10.034 -0.706,-20.974 -10.154,-31.944 -14.614,-16.969 -18.433,-25.913 -18.439,-43.184 -0.005,-13.756 -0.979,-14.629 -4.456,-3.99 -2.942,9.001 -4.307,18.405 -3.928,27.063 0.382,8.728 0.541,8.577 -4.857,4.607 -10.009,-7.36 -9.846,-19.275 0.585,-42.763 7.762,-17.479 9.72,-29.655 6.147,-38.233 -2.561,-6.149 -5.042,-7.707 -5.042,-3.167 0,6.2239 -7.55053,26.10014 -7.688,17.945 -0.70054,-15.29395 -6.70315,-19.99978 -13.812,-31.778 -1.83146,-3.54269 -6.10091,-13.12117 -3.466,-21.104 1.436,-4.351 1.641,-4.428 2.313,-0.873 0.258,1.362 0.907,3.602 1.441,4.977 0.535,1.375 1.002,2.868 1.039,3.317 0.154,1.884 7.553,6.571 11.4,7.221 7.723,1.305 10.042,-6.69 5.233,-18.038 -1.47862,-6.78831 -5.77836,-10.1908 -10.743,-14.955 -2.319,-2.303 -7.027,-5.996 -10.462,-8.205 -3.434,-2.21 -14.1574,-10.2077 -16.656,-14.148 -4.348,-8.408 -2.139,-18.521 4.901,-22.445 0.611,-0.341 1.03,1.643 1.078,5.098 -0.0479,14.60492 2.50428,13.03967 15.33,23.225 4.01484,3.17127 6.77877,5.56261 8.582,6.914 1.644,2.661 2.748,0.773 2.141,-3.661 -0.467,-3.403 -2.396,-7.367 -7.082,-14.545 -8.559,-13.114 -9.46,-19.285 -4.475,-30.644 4.84002,-8.69777 11.0321,-17.19348 18.496,-23.822 1.437,-0.997 3.539,-2.809 4.672,-4.028 1.132,-1.219 8.92099,-6.975 11.351,-9.795 8.253,-8.35 10.453,-15.618 6.319,-20.874 -7.635,-9.706 -21.02,-6.045 -27.912,7.635 -1.317,2.613 -12.97283,25.17601 -18.694,34.493 -1.581,2.066 -4.096,5.557 -5.59,7.757 -1.494,2.2 -5.178,6.7 -8.185,10 -5.88792,7.21855 -8.68826,10.68133 -12.038,17.862 -5.11796,15.20278 1.3822,26.44492 11.079,37.362 l 3.071,3.521 -1.494,5.127 c -0.95,3.257 -1.521,9.69 -1.566,17.628 -1.1119,7.92659 0.19114,13.00413 3.683,19.745 14.75149,25.04351 22.20337,37.97513 17.15,69.001 -5.266,21.441 1.504,34.471 28.447,54.754 17.06,12.842 18.162,14.301 22.093,29.234 1.453,5.518 3.051,6.235 15.123,6.781 14.769,0.668 21.831,3.286 27.171,10.075 8.649,10.996 22.225,10.247 25.699,-1.418 4.214,-14.151 12.947,-15.948 20.304,-4.177 4.462,7.138 5.066,7.247 16.235,2.947 18.5,-7.124 28.929,-16.981 38.96,-36.825 1.496,-2.961 5.428,-8.811 8.736,-13 8.122,-10.284 9.546,-13.395 10.818,-23.629 0.741,-5.97 2.469,-12.306 5.42,-19.876 6.04,-15.491 6.081,-15.85 3.514,-30.546 l -2.244,-12.843 3.757,-19.361 c 2.067,-10.649 5.703,-28.137 8.082,-38.862 9.136,-41.198 8.391,-56.042 -3.673,-73.17 -4.156,-5.901 -7.843,-14.997 -11.28,-27.83 -7.787,-29.072 -23.691,-49 -39.105,-49 -6.06,0 -6.856,-0.252 -9.3,-2.939 -1.47,-1.617 -4.063,-4.456 -5.762,-6.31 -6.143,-6.703 -11.813,-7.98 -27.911,-6.285 -4.975,0.524 -9.419,0.274 -15.36,-0.865 -10.131,-1.94 -17.37,-1.924 -26.624,0.058 m -71.899,41.482 c -3.5056,9.04838 -11.97903,19.54223 3.582,5.628 6.268,-5.714 6.826,-10.769 1.19,-10.769 -1.661,0 -2.846,1.276 -4.772,5.141 m 9.739,26.084 c -26.421,17.671 -30.555,32.094 -16.061,56.025 4.161,6.871 4.691,5.921 2.511,-4.5 -3.977,-19.015 2.41,-35.55 19.218,-49.75 1.092,-0.922 3.976,-5.436 3.976,-6.223 0,-1.583 -2.021,-0.651 -9.644,4.448 m 23.782,37.789 c -2.4,0.506 -6,2.171 -8,3.7 -1.50768,1.26397 -5.18,5.137 -6.407,6.485 -4.161,4.57 -1.563,11.016 2.839,7.043 8.353,-7.54 18.629,-10.259 25.447,-6.733 l 3.337,1.725 -7.018,2.225 c -18.161,5.758 -31.294,18.229 -19.547,18.561 10.867,0.307 16.382,2.873 15.514,7.217 -1.053,5.264 4.764,7.261 13.822,4.745 14.005,-3.89 34.544,-37.982 22.883,-37.982 -1.565,0 -7.944,-1.605 -14.176,-3.567 -12.077,-3.801 -21.537,-4.928 -28.694,-3.419 m 94.224,10.486 c -1.382,3.601 0.34,4.604 7.374,4.296 6.551,-0.287 6.774,-0.382 7.08,-3.046 l 0.317,-2.75 h -7.098 c -5.387,0 -7.237,0.362 -7.673,1.5 m 26.21,31.384 c -2.725,4.409 -17.22,6.942 -26.884,4.698 -11.304,-2.625 -11.268,-2.671 -6.73,8.479 11.334,27.852 42.656,28.523 43.836,0.939 0.503,-11.761 -6.069,-20.837 -10.222,-14.116 m -70.415,71.093 c -4.583,1.108 -5.829,2.508 -4.095,4.598 1.691,2.037 23.081,1.682 25.18,-0.417 3.88,-3.88 -10.522,-6.735 -21.085,-4.181 m -10.778,15.46 c -12.427,5.408 -16.483,27.791 -9.161,50.563 5.863,18.233 7.735,18.715 7.779,2 0.064,-24.737 9.105,-38.621 28.003,-43.001 10.999,-2.549 16.567,-6.406 13.895,-9.626 -1.62,-1.951 -36.01,-1.898 -40.516,0.064 m 48.192,12.813 c -14.694,11.134 -15.274,19.939 -2.611,39.688 9.078,14.158 10.294,21.408 5.154,30.73 -3.041,5.516 -2.403,5.939 3.151,2.09 6.467,-4.481 7.274,-11.783 2.735,-24.758 -4.874,-13.933 -3.967,-22.083 3.308,-29.75 4.008,-4.224 2.066,-4.162 -6.558,0.208 l -6.75,3.421 0.022,-5.69 c 0.024,-6.17 2.159,-11.938 6.551,-17.695 3.471,-4.551 3.195,-4.455 -5.002,1.756"
     stroke="none"
     fill="#5474fc"
     fill-rule="evenodd"
     id="path2"
     sodipodi:nodetypes="csscccccsccccscccccscsscccccccccsscsccsscsccscscccscccsccsccccccccccccscccscscccccccccccccccscccscsccccscscccccccccccscccsccccccccccsscccccccccccccsccccccsscccccscccccccsscsscccsccsccccscccsccccccccsccssccscc" />
</svg>
